<svg width="38" height="17" viewBox="0 0 38 17" fill="none" xmlns="http://www.w3.org/2000/svg">
<path d="M27.1099 16.06V0.220001H29.9699V16.06H27.1099ZM28.4739 9.702V7.436H37.3839V9.702H28.4739ZM28.4739 2.486V0.220001H37.9119V2.486H28.4739Z" fill="black"/>
<path d="M22.8731 16.06L14.5791 7.348C14.1098 6.83467 13.7358 6.37267 13.4571 5.962C13.1785 5.55133 12.9805 5.16267 12.8631 4.796C12.7458 4.42933 12.6871 4.04067 12.6871 3.63C12.6871 2.95533 12.8705 2.34667 13.2371 1.804C13.6038 1.24667 14.1171 0.806666 14.7771 0.484C15.4518 0.161333 16.2218 0 17.0871 0C17.9231 0 18.6785 0.154 19.3531 0.461999C20.0278 0.77 20.5558 1.20267 20.9371 1.76C21.3331 2.31733 21.5311 2.98467 21.5311 3.762C21.5311 4.65667 21.1938 5.478 20.5191 6.226C19.8445 6.95933 18.8471 7.546 17.5271 7.986L16.1851 6.38C17.1678 6.072 17.8865 5.69067 18.3411 5.236C18.8105 4.76667 19.0451 4.25333 19.0451 3.696C19.0451 3.19733 18.8692 2.78667 18.5171 2.464C18.1798 2.14133 17.7178 1.98 17.1312 1.98C16.5592 1.98 16.1118 2.14133 15.7891 2.464C15.4811 2.78667 15.3271 3.17533 15.3271 3.63C15.3271 3.87933 15.3785 4.14333 15.4811 4.422C15.5838 4.686 15.7965 5.02333 16.1191 5.434C16.4565 5.84467 16.9478 6.38733 17.5932 7.062L26.4591 16.06H22.8731ZM16.5811 16.28C15.3638 16.28 14.2931 16.082 13.3691 15.686C12.4598 15.29 11.7485 14.7473 11.2351 14.058C10.7218 13.354 10.4651 12.54 10.4651 11.616C10.4651 10.384 10.8831 9.35 11.7191 8.514C12.5551 7.66333 13.7651 7.01067 15.3491 6.556L16.6911 8.206C15.8405 8.45533 15.1658 8.74133 14.6671 9.064C14.1685 9.372 13.8091 9.71667 13.5891 10.098C13.3691 10.4793 13.2591 10.8973 13.2591 11.352C13.2591 12.1733 13.5671 12.8187 14.1831 13.288C14.8138 13.7573 15.6938 13.992 16.8231 13.992C17.5858 13.992 18.3045 13.8673 18.9791 13.618C19.6538 13.3687 20.2551 12.9873 20.7831 12.474C21.3111 11.946 21.7218 11.2787 22.0151 10.472C22.3231 9.65067 22.4771 8.668 22.4771 7.524H25.1391C25.1391 8.56533 24.9998 9.54067 24.7212 10.45C24.4425 11.3447 24.0465 12.1513 23.5331 12.87C23.0345 13.5887 22.4258 14.2047 21.7071 14.718C21.0031 15.2167 20.2185 15.6053 19.3531 15.884C18.4878 16.148 17.5638 16.28 16.5811 16.28Z" fill="black"/>
<path d="M0 16.06V0.220001H2.86V16.06H0ZM1.364 9.702V7.436H10.274V9.702H1.364ZM1.364 2.486V0.220001H10.802V2.486H1.364Z" fill="black"/>
</svg>
