<svg width="1250" height="153" viewBox="0 0 1250 153" fill="none" xmlns="http://www.w3.org/2000/svg">
<path fill-rule="evenodd" clip-rule="evenodd" d="M718.238 150.255L706.703 138.139C700.278 142.594 693.146 146.084 685.306 148.608C677.21 151.078 668.565 152.313 659.371 152.313C647.982 152.313 637.965 150.461 629.32 146.756C620.813 143.051 614.158 137.974 609.355 131.525C604.552 124.938 602.151 117.323 602.151 108.678C602.151 97.1513 606.062 87.4773 613.883 79.6558C619.722 73.7143 627.511 68.8052 637.251 64.9286C634.41 61.6247 632.041 58.5751 630.144 55.7796C627.536 51.9375 625.684 48.3012 624.586 44.8707C623.489 41.4402 622.94 37.8039 622.94 33.9618C622.94 27.6497 624.655 21.9551 628.085 16.878C631.516 11.6636 636.318 7.54706 642.493 4.52824C648.805 1.50941 656.009 0 664.105 0C671.927 0 678.994 1.4408 685.306 4.3224C691.618 7.20401 696.558 11.252 700.125 16.4663C703.83 21.6806 705.683 27.9241 705.683 35.1968C705.683 43.5671 702.527 51.2514 696.215 58.2496C691.097 63.8121 683.995 68.4727 674.909 72.2313L707.164 104.966C708.297 102.775 709.313 100.445 710.211 97.9746C713.093 90.2903 714.534 81.0966 714.534 70.3935H739.439C739.439 80.1361 738.135 89.2612 735.528 97.7687C732.921 106.139 729.216 113.686 724.413 120.41C724.133 120.813 723.85 121.213 723.563 121.609L751.789 150.255H718.238ZM651.251 79.892L691.695 122.374C688.611 124.434 685.315 126.112 681.807 127.408C675.495 129.741 668.771 130.907 661.635 130.907C651.07 130.907 642.836 128.712 636.936 124.321C631.173 119.93 628.291 113.892 628.291 106.208C628.291 101.954 629.32 98.0432 631.379 94.4755C633.437 90.9078 636.799 87.6831 641.464 84.8015C644.172 83.0495 647.434 81.413 651.251 79.892ZM675.838 48.9873C672.472 52.3525 667.561 55.2884 661.104 57.7948C658.7 55.1459 656.682 52.8275 655.049 50.8398C652.03 46.9976 650.04 43.8416 649.08 41.3716C648.119 38.7644 647.639 36.2945 647.639 33.9618C647.639 29.708 649.08 26.0717 651.961 23.0528C654.98 20.034 659.166 18.5246 664.517 18.5246C670.006 18.5246 674.328 20.034 677.484 23.0528C680.778 26.0717 682.424 29.9138 682.424 34.5793C682.424 39.7936 680.229 44.5963 675.838 48.9873ZM788.414 2.05602V150.253H815.171V90.7683H884.536V69.5679H815.171V23.2564H889.476V2.05602H815.171H801.175H788.414ZM945.922 152.312C934.807 152.312 924.996 149.98 916.489 145.314C908.118 140.649 901.6 134.199 896.935 125.966C892.269 117.596 889.937 108.059 889.937 97.356C889.937 86.6529 892.269 77.2533 896.935 69.1574C901.6 61.0615 908.118 54.7494 916.489 50.2211C924.996 45.5557 934.807 43.2229 945.922 43.2229C957.174 43.2229 966.985 45.5557 975.356 50.2211C983.726 54.7494 990.244 61.0615 994.909 69.1574C999.575 77.2533 1001.91 86.6529 1001.91 97.356C1001.91 108.059 999.506 117.596 994.704 125.966C990.038 134.199 983.52 140.649 975.15 145.314C966.779 149.98 957.037 152.312 945.922 152.312ZM945.922 131.524C951.411 131.524 956.351 130.151 960.742 127.407C965.133 124.525 968.563 120.546 971.033 115.469C973.503 110.255 974.738 104.148 974.738 97.1501C974.738 86.8587 971.994 78.7628 966.505 72.8623C961.154 66.9619 954.292 64.0117 945.922 64.0117C937.552 64.0117 930.622 66.9619 925.133 72.8623C919.645 78.7628 916.9 86.8587 916.9 97.1501C916.9 104.148 918.135 110.255 920.605 115.469C923.212 120.546 926.643 124.525 930.897 127.407C935.288 130.151 940.296 131.524 945.922 131.524ZM1011.72 45.2812V150.254H1037.66V95.5035C1037.66 85.8982 1040.13 78.9 1045.07 74.509C1050.01 70.1179 1057.49 67.9224 1067.5 67.9224C1069.29 67.9224 1070.8 67.991 1072.03 68.1283C1073.27 68.1283 1074.23 68.2655 1074.91 68.5399V44.0463C1073.68 43.4974 1071.62 43.2229 1068.74 43.2229C1060.5 43.2229 1053.44 45.5557 1047.54 50.2211C1043.04 53.7747 1039.54 58.5622 1037.04 64.5836V45.2812H1011.72ZM1082.66 45.2812V150.254H1108.6V92.6219C1108.6 86.9959 1109.76 82.056 1112.09 77.8022C1114.56 73.5484 1117.86 70.2552 1121.97 67.9224C1126.09 65.5897 1130.62 64.4233 1135.56 64.4233C1141.19 64.4233 1145.51 65.9327 1148.53 68.9516C1151.68 71.8332 1153.26 76.3614 1153.26 82.5363V150.254H1179.4V92.6219C1179.4 86.9959 1180.57 82.056 1182.9 77.8022C1185.23 73.5484 1188.46 70.2552 1192.57 67.9224C1196.69 65.5897 1201.29 64.4233 1206.36 64.4233C1211.99 64.4233 1216.31 65.9327 1219.33 68.9516C1222.35 71.8332 1223.86 76.3614 1223.86 82.5363V150.254H1250V77.3906C1250 67.0991 1246.84 58.866 1240.53 52.6911C1234.36 46.379 1225.78 43.2229 1214.8 43.2229C1205.61 43.2229 1197.51 45.5557 1190.52 50.2211C1185.06 53.7535 1180.68 58.246 1177.39 63.6988C1175.86 59.4511 1173.44 55.7132 1170.14 52.4853C1163.96 46.3104 1155.52 43.2229 1144.82 43.2229C1135.9 43.2229 1128.08 45.5557 1121.36 50.2211C1115.83 53.9422 1111.37 58.7289 1107.98 64.5812V45.2812H1082.66ZM489.223 145.314C497.593 149.98 507.336 152.312 518.451 152.312C530.801 152.312 541.023 149.431 549.119 143.667C557.352 137.904 563.184 130.083 566.615 120.203H542.121C540.2 124.457 537.181 127.613 533.065 129.671C528.948 131.729 524.145 132.759 518.657 132.759C509.189 132.759 501.847 129.808 496.633 123.908C492.768 119.312 490.375 113.206 489.452 105.589H568.673C568.948 103.943 569.153 102.296 569.291 100.649C569.428 99.0026 569.496 97.2188 569.496 95.2977C569.496 84.869 567.37 75.7439 563.116 67.9224C558.862 60.1009 552.893 54.0633 545.209 49.8095C537.524 45.4185 528.468 43.2229 518.039 43.2229C507.062 43.2229 497.456 45.5557 489.223 50.2211C480.99 54.7494 474.541 61.1301 469.875 69.3632C465.347 77.4592 463.083 86.8587 463.083 97.5618C463.083 108.265 465.347 117.733 469.875 125.966C474.541 134.199 480.99 140.649 489.223 145.314ZM543.15 87.4762H489.863C490.992 81.0726 493.248 75.8583 496.633 71.8332C501.847 65.7955 508.845 62.7767 517.627 62.7767C525.723 62.7767 532.035 65.2467 536.564 70.1865C540.303 74.2656 542.498 80.0288 543.15 87.4762ZM286.81 150.254V45.2812H312.127V64.581C315.521 58.7288 319.981 53.9422 325.506 50.2211C332.229 45.5557 340.051 43.2229 348.97 43.2229C359.673 43.2229 368.112 46.3104 374.287 52.4853C377.589 55.7132 380.007 59.451 381.544 63.6987C384.832 58.246 389.205 53.7534 394.664 50.2211C401.662 45.5557 409.758 43.2229 418.952 43.2229C429.93 43.2229 438.506 46.379 444.681 52.6911C450.993 58.866 454.149 67.0991 454.149 77.3906V150.254H428.009V82.5363C428.009 76.3614 426.499 71.8332 423.48 68.9516C420.461 65.9327 416.139 64.4233 410.513 64.4233C405.436 64.4233 400.839 65.5897 396.723 67.9224C392.606 70.2552 389.381 73.5484 387.049 77.8022C384.716 82.056 383.549 86.9959 383.549 92.6219V150.254H357.409V82.5363C357.409 76.3614 355.831 71.8332 352.675 68.9516C349.656 65.9327 345.334 64.4233 339.708 64.4233C334.768 64.4233 330.24 65.5897 326.123 67.9224C322.007 70.2552 318.713 73.5484 316.243 77.8022C313.911 82.056 312.744 86.9959 312.744 92.6219V150.254H286.81ZM245.106 141.198C245.518 144.491 246.066 147.51 246.753 150.254H272.687C271.726 146.412 270.972 142.776 270.423 139.345C270.011 135.915 269.805 132.553 269.805 129.259V81.713C269.805 69.0888 266.1 59.5521 258.691 53.1027C251.281 46.5162 240.372 43.2229 225.964 43.2229C212.105 43.2229 201.059 46.2418 192.825 52.2794C184.592 58.3171 179.927 66.2072 178.829 75.9498H203.734C204.558 71.696 206.753 68.4713 210.321 66.2758C214.026 63.9431 218.966 62.7767 225.14 62.7767C231.453 62.7767 236.118 64.2175 239.137 67.0991C242.293 69.8435 243.871 73.9601 243.871 79.4489V84.6917L215.878 88.917C203.117 90.8381 193.237 94.6116 186.239 100.238C179.241 105.864 175.742 113.479 175.742 123.085C175.742 132.004 178.829 139.139 185.004 144.491C191.316 149.705 199.755 152.312 210.321 152.312C219.377 152.312 226.993 150.391 233.168 146.549C238.128 143.422 241.987 139.193 244.744 133.863C244.806 136.601 244.927 139.046 245.106 141.198ZM243.871 113.411V101.164L220.201 104.766C214.026 105.726 209.36 107.442 206.204 109.912C203.185 112.381 201.676 115.812 201.676 120.203C201.676 124.182 203.117 127.27 205.998 129.465C208.88 131.524 212.859 132.553 217.936 132.553C225.346 132.553 231.521 130.7 236.461 126.995C241.401 123.29 243.871 118.762 243.871 113.411ZM113.977 150.254V45.2812H139.294V64.5834C141.798 58.5621 145.297 53.7747 149.791 50.2211C155.691 45.5557 162.758 43.2229 170.991 43.2229C173.873 43.2229 175.931 43.4974 177.166 44.0463V68.5399C176.48 68.2655 175.52 68.1283 174.285 68.1283C173.05 67.991 171.54 67.9224 169.756 67.9224C159.739 67.9224 152.261 70.1179 147.321 74.509C142.381 78.9 139.911 85.8982 139.911 95.5035V150.254H113.977ZM0 2.05602V150.253H26.7578V90.7683H96.1221V69.5679H26.7578V23.2564H101.062V2.05602H26.7578H12.7614H0Z" fill="black"/>
</svg>
