<svg width="1250" height="151" viewBox="0 0 1250 151" fill="none" xmlns="http://www.w3.org/2000/svg">
<path d="M149.818 58.4136V58.9788C149.972 43.5662 143.961 28.4105 132.71 17.1593C121.562 6.0109 106.663 0 91.4046 0H58.2675C43.0091 0 28.1617 6.0109 17.0132 17.1079C5.81343 28.3591 -0.146096 43.4634 0.00289167 58.9274V58.3623V91.4993V90.9341C-0.151234 106.347 5.85967 121.502 17.1108 132.754C28.362 144.005 43.4663 149.964 58.9303 149.862H58.3652H91.5022H90.937C106.35 150.016 121.505 144.005 132.756 132.754C144.008 121.502 149.967 106.398 149.864 90.9341V91.4993L149.813 58.4136H149.818ZM148.071 72.4904C148.226 71.8739 148.38 71.3088 148.482 70.6923C148.38 71.3088 148.226 71.9253 148.071 72.4904C147.917 73.1069 147.815 73.6721 147.763 74.3399C147.917 73.7234 147.969 73.1069 148.071 72.4904ZM149.818 59.7494C149.818 60.109 149.818 60.4173 149.767 60.7255C149.767 60.4173 149.767 60.109 149.818 59.7494ZM149.767 61.5989C149.767 61.9585 149.715 62.2668 149.715 62.575C149.715 62.2668 149.767 61.9071 149.767 61.5989ZM149.664 63.397C149.613 63.7053 149.613 64.0649 149.561 64.3218C149.561 64.0649 149.613 63.7567 149.664 63.397ZM148.893 68.8942C148.842 69.2024 148.791 69.562 148.688 69.8189C148.739 69.562 148.842 69.2024 148.893 68.8942ZM38.3853 34.6783C41.2623 28.205 45.2696 22.3996 50.3558 17.3134C56.3667 11.3025 63.6106 6.67878 71.5224 3.80177C73.6801 2.97976 76.0434 2.97976 78.2525 3.80177C86.1643 6.67878 93.4596 11.3025 99.4191 17.3134C104.505 22.3996 108.513 28.205 111.39 34.6783C111.801 35.5517 110.927 36.425 110.054 36.1168C99.5732 32.6233 88.1165 32.1095 77.3277 34.8324C75.7351 35.2434 74.0911 35.2434 72.4985 34.8324C61.7097 32.1609 50.253 32.6233 39.7725 36.1168C38.8477 36.4764 37.9743 35.603 38.3853 34.6783ZM1.96029 74.3399C1.90891 73.7234 1.80616 73.1069 1.65204 72.4904C1.49791 71.8739 1.34379 71.3088 1.24103 70.6923C1.39516 71.3088 1.49791 71.8739 1.65204 72.4904C1.85754 73.1069 1.90891 73.7234 1.96029 74.3399ZM0.0594044 60.7769C0.0594044 60.4173 0.00802919 60.109 0.00802919 59.8008C0.0594044 60.109 0.0594044 60.4173 0.0594044 60.7769ZM0.778658 67.9694C0.727282 67.6612 0.675907 67.3529 0.624532 67.0447C0.675907 67.4043 0.727282 67.7125 0.778658 67.9694ZM0.264905 64.3732C0.21353 64.0649 0.21353 63.7053 0.162155 63.4484C0.21353 63.7566 0.264905 64.0649 0.264905 64.3732ZM0.11078 62.575C0.11078 62.2154 0.0594044 61.9071 0.0594044 61.5989C0.0594044 61.9071 0.11078 62.2668 0.11078 62.575ZM1.75479 77.4225C1.60066 78.039 1.44654 78.6041 1.34379 79.2206C1.44654 78.6041 1.60066 77.9876 1.75479 77.4225C1.90891 76.806 2.01166 76.2408 2.06304 75.573C1.90891 76.1895 1.85754 76.806 1.75479 77.4225ZM0.00289167 90.1635C0.00289167 89.8039 0.00289167 89.4956 0.0542669 89.1874C0.0542669 89.4956 0.0542669 89.8039 0.00289167 90.1635ZM0.0594044 88.314C0.0594044 87.9544 0.11078 87.6461 0.11078 87.3379C0.11078 87.6461 0.0594044 88.0057 0.0594044 88.314ZM0.162155 86.5159C0.21353 86.2076 0.21353 85.848 0.264905 85.5911C0.264905 85.848 0.21353 86.1562 0.162155 86.5159ZM0.624532 82.8169C0.675907 82.5086 0.727282 82.2004 0.778658 81.8921C0.727282 82.2517 0.675907 82.5086 0.624532 82.8169ZM0.932783 81.0187C0.984158 80.7105 1.03553 80.3508 1.13828 80.094C1.08691 80.3508 0.984158 80.7105 0.932783 81.0187ZM34.7891 72.4904C35.2001 74.0831 35.2001 75.7271 34.7891 77.3197C32.1175 88.1085 32.5799 99.5652 36.0734 110.046C36.3817 110.97 35.4569 111.792 34.6349 111.381C28.1617 108.504 22.3563 104.497 17.2701 99.411C11.2592 93.4002 6.63543 86.1562 3.75842 78.2445C2.93642 76.0867 2.93642 73.7234 3.75842 71.5143C6.63543 63.6025 11.2592 56.3072 17.2701 50.3477C22.3563 45.2616 28.1617 41.2543 34.6349 38.3773C35.5083 37.9663 36.3817 38.8397 36.0734 39.7131C32.5799 50.3477 32.1689 61.7016 34.7891 72.4904ZM72.4471 148.115C71.8306 148.269 71.2655 148.423 70.649 148.526C71.2655 148.423 71.882 148.269 72.4471 148.115C73.0636 147.961 73.6287 147.858 74.2966 147.807C73.6801 147.961 73.0636 148.012 72.4471 148.115ZM59.706 149.862C60.0657 149.862 60.3739 149.862 60.6822 149.81C60.3739 149.81 60.0657 149.81 59.706 149.862ZM61.5556 149.81C61.9152 149.81 62.2234 149.759 62.5317 149.759C62.2234 149.759 61.8638 149.81 61.5556 149.81ZM63.3537 149.707C63.6619 149.656 64.0216 149.656 64.2784 149.605C64.0216 149.605 63.7133 149.656 63.3537 149.707ZM68.8508 148.937C69.1591 148.885 69.5187 148.834 69.7756 148.731C69.5187 148.783 69.1591 148.885 68.8508 148.937ZM75.5296 147.909C76.1461 147.961 76.7626 148.063 77.3791 148.218C77.9956 148.372 78.5608 148.526 79.1773 148.629C78.5608 148.474 77.9956 148.372 77.3791 148.218C76.7626 148.012 76.1461 147.961 75.5296 147.909ZM89.0927 149.81C89.4523 149.81 89.7606 149.862 90.0688 149.862C89.7606 149.81 89.4523 149.81 89.0927 149.81ZM81.9001 149.091C82.2084 149.142 82.5166 149.194 82.8249 149.245C82.4653 149.194 82.157 149.142 81.9001 149.091ZM85.4964 149.605C85.8047 149.656 86.1643 149.656 86.4212 149.707C86.1129 149.656 85.8047 149.605 85.4964 149.605ZM87.2945 149.759C87.6542 149.759 87.9624 149.81 88.2707 149.81C87.9624 149.81 87.6028 149.759 87.2945 149.759ZM111.441 115.235C108.564 121.708 104.557 127.513 99.4705 132.599C93.4596 138.61 86.2157 143.234 78.3039 146.111C76.1461 146.933 73.7829 146.933 71.5737 146.111C63.6619 143.234 56.3667 138.61 50.4071 132.599C45.321 127.513 41.3137 121.657 38.4367 115.235C38.0257 114.361 38.8991 113.488 39.7725 113.796C50.253 117.341 61.7097 117.803 72.4985 115.08C74.0911 114.669 75.7351 114.669 77.3277 115.08C88.1165 117.803 99.5732 117.29 110.054 113.796C110.979 113.436 111.852 114.31 111.441 115.235ZM112.982 78.2958C110.105 86.2076 105.481 93.5029 99.4705 99.4624C93.4596 105.473 86.2157 110.097 78.3039 112.974C76.1461 113.796 73.7829 113.796 71.5737 112.974C63.6619 110.097 56.3667 105.473 50.4071 99.4624C44.3962 93.5029 39.7211 86.259 36.8954 78.2958C36.0734 76.1381 36.0734 73.7748 36.8954 71.5657C39.7725 63.6539 44.3962 56.3586 50.4071 50.3991C56.418 44.4396 63.6619 39.7644 71.5737 36.8874C73.7315 36.0654 76.0947 36.0654 78.3039 36.8874C86.2157 39.7644 93.5109 44.3882 99.4705 50.3991C105.481 56.41 110.105 63.6539 112.982 71.5657C113.701 73.7748 113.701 76.1381 112.982 78.2958ZM146.068 78.2958C143.191 86.2076 138.567 93.5029 132.556 99.4624C127.47 104.549 121.665 108.556 115.191 111.433C114.318 111.844 113.445 110.97 113.753 110.097C117.246 99.6166 117.76 88.1599 115.037 77.3711C114.626 75.7785 114.626 74.1344 115.037 72.5418C117.709 61.753 117.246 50.2963 113.753 39.8158C113.445 38.891 114.369 38.069 115.191 38.48C121.665 41.3571 127.47 45.3643 132.556 50.4505C138.567 56.4614 143.191 63.7053 146.068 71.6171C146.838 73.7748 146.838 76.1381 146.068 78.2958ZM147.866 75.573C147.917 76.1895 148.02 76.806 148.174 77.4225C148.328 78.039 148.482 78.6041 148.585 79.2206C148.431 78.6041 148.328 78.039 148.174 77.4225C147.969 76.806 147.917 76.1895 147.866 75.573ZM149.767 89.136C149.767 89.4956 149.818 89.8039 149.818 90.1121C149.767 89.8039 149.767 89.4956 149.767 89.136ZM149.048 81.9435C149.099 82.2517 149.15 82.56 149.202 82.8682C149.15 82.5086 149.099 82.2517 149.048 81.9435ZM149.561 85.5397C149.613 85.848 149.613 86.2076 149.664 86.4645C149.613 86.1562 149.561 85.848 149.561 85.5397ZM149.715 87.3379C149.715 87.6975 149.767 88.0057 149.767 88.314C149.767 88.0057 149.715 87.6461 149.715 87.3379Z" fill="black"/>
<path fill-rule="evenodd" clip-rule="evenodd" d="M232.928 42.6228C239.685 42.6228 245.713 39.5336 249.655 34.7024C248.998 40.8841 251.039 47.298 255.777 52.036C260.644 56.903 267.279 58.9238 273.615 58.0985C268.595 61.9974 265.366 68.0908 265.366 74.9386C265.366 81.9237 268.726 88.1239 273.919 92.0107C267.518 91.1104 260.787 93.1215 255.865 98.0438C251.073 102.836 249.04 109.342 249.766 115.588C245.863 110.661 239.827 107.5 233.052 107.5C226.183 107.5 220.073 110.75 216.175 115.796C216.927 109.48 214.862 102.871 209.989 97.9982C205.22 93.2289 198.787 91.1495 192.594 91.7681C197.41 87.8262 200.489 81.807 200.489 75.0625C200.489 68.4059 197.49 62.4558 192.781 58.5121C198.89 59.0432 205.204 56.9553 209.903 52.2564C214.744 47.4151 216.814 40.8593 216.103 34.5803C220.042 39.4815 226.115 42.6228 232.928 42.6228ZM211.559 23.6787C211.473 22.9015 211.428 22.1116 211.428 21.3114C211.428 9.54144 221.054 0 232.928 0C244.802 0 254.428 9.54144 254.428 21.3114C254.428 22.0553 254.39 22.7903 254.315 23.5146C254.77 22.9569 255.257 22.417 255.777 21.8972C264.099 13.5745 277.593 13.5745 285.916 21.8972C294.238 30.2198 294.238 43.7134 285.916 52.036C285.277 52.6746 284.608 53.2642 283.913 53.8048C284.818 53.6876 285.74 53.6272 286.677 53.6272C298.447 53.6272 307.989 63.1686 307.989 74.9386C307.989 86.7086 298.447 96.25 286.677 96.25C285.666 96.25 284.672 96.1796 283.698 96.0434C284.502 96.646 285.273 97.3128 286.004 98.0438C294.326 106.366 294.326 119.86 286.004 128.183C277.681 136.505 264.187 136.505 255.865 128.183C255.275 127.593 254.728 126.978 254.222 126.34C254.315 127.151 254.364 127.976 254.364 128.811C254.364 140.581 244.822 150.123 233.052 150.123C221.282 150.123 211.741 140.581 211.741 128.811C211.741 127.95 211.792 127.101 211.891 126.266C211.351 126.962 210.762 127.632 210.123 128.27C201.8 136.593 188.247 136.533 179.85 128.137C171.454 119.741 171.394 106.187 179.717 97.8648C180.215 97.3667 180.732 96.8987 181.265 96.4606C180.578 96.528 179.882 96.5625 179.177 96.5625C167.407 96.5625 157.866 86.9366 157.866 75.0625C157.866 63.1884 167.407 53.5625 179.177 53.5625C179.789 53.5625 180.394 53.5885 180.993 53.6394C180.525 53.2463 180.07 52.8297 179.63 52.3898C171.308 44.0671 171.368 30.5138 179.764 22.1175C188.16 13.7212 201.713 13.6615 210.036 21.9842C210.58 22.5277 211.087 23.0935 211.559 23.6787Z" fill="black"/>
</svg>
