<svg width="151" height="151" viewBox="0 0 151 151" fill="none" xmlns="http://www.w3.org/2000/svg">
<path fill-rule="evenodd" clip-rule="evenodd" d="M75.0625 42.6228C81.8189 42.6228 87.8475 39.5336 91.789 34.7024C91.1323 40.8841 93.173 47.298 97.911 52.036C102.778 56.903 109.413 58.9238 115.749 58.0985C110.73 61.9974 107.5 68.0908 107.5 74.9386C107.5 81.9237 110.861 88.1239 116.053 92.0107C109.653 91.1104 102.921 93.1215 97.9991 98.0438C93.2072 102.836 91.1743 109.342 91.9005 115.588C87.997 110.661 81.9608 107.5 75.1864 107.5C68.3171 107.5 62.2069 110.75 58.3096 115.796C59.0612 109.48 56.9962 102.871 52.1236 97.9982C47.3543 93.2289 40.9212 91.1495 34.7279 91.7681C39.5445 87.8262 42.6228 81.807 42.6228 75.0625C42.6228 68.4059 39.6242 62.4558 34.9153 58.5121C41.0239 59.0432 47.338 56.9553 52.037 52.2564C56.8782 47.4151 58.9479 40.8593 58.2372 34.5803C62.1763 39.4815 68.2493 42.6228 75.0625 42.6228ZM53.6937 23.6787C53.607 22.9015 53.5625 22.1116 53.5625 21.3114C53.5625 9.54144 63.1884 0 75.0625 0C86.9366 0 96.5625 9.54144 96.5625 21.3114C96.5625 22.0553 96.524 22.7903 96.449 23.5146C96.9039 22.9569 97.3912 22.417 97.911 21.8972C106.234 13.5745 119.727 13.5745 128.05 21.8972C136.373 30.2198 136.373 43.7134 128.05 52.036C127.411 52.6746 126.742 53.2642 126.048 53.8048C126.952 53.6876 127.875 53.6272 128.811 53.6272C140.581 53.6272 150.123 63.1686 150.123 74.9386C150.123 86.7086 140.581 96.25 128.811 96.25C127.8 96.25 126.806 96.1796 125.832 96.0434C126.636 96.646 127.407 97.3128 128.138 98.0438C136.461 106.366 136.461 119.86 128.138 128.183C119.815 136.505 106.322 136.505 97.9991 128.183C97.4097 127.593 96.862 126.978 96.3561 126.34C96.4497 127.151 96.4978 127.976 96.4978 128.811C96.4978 140.581 86.9564 150.123 75.1864 150.123C63.4164 150.123 53.875 140.581 53.875 128.811C53.875 127.95 53.9261 127.101 54.0254 126.266C53.4853 126.962 52.8958 127.632 52.2569 128.27C43.9343 136.593 30.381 136.533 21.9847 128.137C13.5884 119.741 13.5287 106.187 21.8513 97.8648C22.3494 97.3667 22.8663 96.8987 23.3996 96.4606C22.7126 96.528 22.016 96.5625 21.3114 96.5625C9.54144 96.5625 0 86.9366 0 75.0625C0 63.1884 9.54144 53.5625 21.3114 53.5625C21.923 53.5625 22.5285 53.5885 23.127 53.6394C22.6593 53.2463 22.2047 52.8297 21.7647 52.3898C13.4421 44.0671 13.5018 30.5138 21.8981 22.1175C30.2944 13.7212 43.8477 13.6615 52.1703 21.9842C52.7139 22.5277 53.2216 23.0935 53.6937 23.6787Z" fill="black"/>
</svg>
